# xmcd
#
# Track frame offsets:
#	150
#	10938
#	23900
#	38675
#	54313
#	67800
#	82725
#	94350
#	108975
#	119570
#	135538
#	147803
#
# Disc length: 2147 seconds
#
# Revision: 0
# Processed by: cddbd v1.4PL0 Copyright (c) Steve Scherf et al.
# Submitted via: EasyCDDAExtractor 5.0.5.1
#
DISCID=9308610c
DTITLE=Kikki Danielsson - Midnight Sunshine
DYEAR=1984
DGENRE=Country
TTITLE0=Wasn't That Love
TTITLE1=Undercover Lovers
TTITLE2=Somebody Else Will
TTITLE3=Fallin' In Love, Fallin' Apart
TTITLE4=Don't Slam The Door
TTITLE5=Babe In Arms
TTITLE6=Midnight Sunshine
TTITLE7=Everyday People
TTITLE8=If I Ever Fall In Love Again
TTITLE9=Waltz In Love Tonight
TTITLE10=The Star
TTITLE11=Totally In Love With You
EXTD=
EXTT0=
EXTT1=
EXTT2=
EXTT3=
EXTT4=
EXTT5=
EXTT6=
EXTT7=
EXTT8=
EXTT9=
EXTT10=
EXTT11=
PLAYORDER=
